<svg id="Layer_1" data-name="Layer 1" xmlns="http://www.w3.org/2000/svg" viewBox="0 0 1140 10"><defs><style>.cls-1{fill:#a6c1d0;}</style></defs><title>ruler</title><path class="cls-1" d="M1,10H0V0H1ZM18,0H17V10h1ZM35,0H34V10h1ZM52,0H51V10h1ZM69,0H68V10h1ZM86,0H85V10h1Zm17,0h-1V10h1Zm17,0h-1V10h1Zm17,0h-1V10h1Zm17,0h-1V10h1Zm17,0h-1V10h1Zm17,0h-1V10h1Zm17,0h-1V10h1Zm17,0h-1V10h1Zm17,0h-1V10h1Zm17,0h-1V10h1Zm17,0h-1V10h1Zm17,0h-1V10h1Zm17,0h-1V10h1Zm17,0h-1V10h1Zm17,0h-1V10h1Zm17,0h-1V10h1Zm17,0h-1V10h1Zm17,0h-1V10h1Zm17,0h-1V10h1Zm17,0h-1V10h1Zm17,0h-1V10h1Zm17,0h-1V10h1Zm17,0h-1V10h1Zm17,0h-1V10h1Zm17,0h-1V10h1Zm17,0h-1V10h1Zm17,0h-1V10h1Zm17,0h-1V10h1Zm17,0h-1V10h1Zm17,0h-1V10h1Zm17,0h-1V10h1Zm17,0h-1V10h1Zm17,0h-1V10h1Zm17,0h-1V10h1Zm17,0h-1V10h1Zm17,0h-1V10h1Zm17,0h-1V10h1Zm17,0h-1V10h1Zm17,0h-1V10h1Zm17,0h-1V10h1Zm17,0h-1V10h1Zm17,0h-1V10h1Zm17,0h-1V10h1Zm17,0h-1V10h1Zm17,0h-1V10h1Zm17,0h-1V10h1Zm0,0h-1V10h1Zm17,0h-1V10h1Zm17,0h-1V10h1Zm17,0h-1V10h1Zm17,0h-1V10h1Zm17,0h-1V10h1Zm17,0h-1V10h1Zm17,0h-1V10h1Zm17,0h-1V10h1Zm17,0h-1V10h1Zm17,0h-1V10h1Zm17,0h-1V10h1Zm17,0h-1V10h1Zm0,0h-1V10h1Zm17,0h-1V10h1Zm17,0h-1V10h1Zm-34,0h-1V10h1Zm17,0h-1V10h1Zm17,0h-1V10h1Zm0,0h-1V10h1Zm17,0h-1V10h1Zm17,0h-1V10h1Zm0,0h-1V10h1Z"/></svg>